<svg width="358" height="358" viewBox="0 0 358 358" fill="none" xmlns="http://www.w3.org/2000/svg">
<path d="M357.145 1.21143H1.0127V357.343H357.145V1.21143Z" fill="white"/>
<mask id="mask0_62_709" style="mask-type:luminance" maskUnits="userSpaceOnUse" x="81" y="67" width="196" height="122">
<path d="M276.753 67.8667H81.4036V188.867H276.753V67.8667Z" fill="white"/>
</mask>
<g mask="url(#mask0_62_709)">
<path d="M263.572 147.349C265.857 148.96 267.86 150.388 269.359 151.73L269.356 151.734C273.699 155.603 276.423 161.219 276.423 167.474C276.423 179.131 266.942 188.59 255.249 188.59C245.714 188.59 237.648 182.299 235.003 173.649L235 173.637C234.299 171.687 233.874 168.602 233.606 164.917C233.339 161.239 233.229 156.991 233.149 152.728C233.132 151.822 233.117 150.915 233.101 150.013C233.043 146.673 232.987 143.398 232.868 140.466C232.718 136.746 232.468 133.555 231.983 131.471C231.523 129.516 230.976 127.52 229.04 124.94L229.032 124.93C225.229 120.386 220.663 118.956 216.627 119.049C212.604 119.141 209.1 120.745 207.392 122.283L207.391 122.284C205.789 123.737 204.186 125.272 202.751 128.296C199.118 135.952 199.397 144.901 199.931 153.333C199.976 154.044 200.023 154.751 200.069 155.454C200.3 158.927 200.522 162.285 200.479 165.417C200.428 169.181 199.992 172.589 198.739 175.444L198.736 175.45C195.588 183.169 187.99 188.608 179.128 188.608C167.434 188.608 157.954 179.149 157.954 167.491C157.954 165.582 158.112 163.456 158.284 161.148C158.894 152.964 159.674 142.492 154.16 131.282C150.71 124.269 145.407 119.066 140.222 114.941C137.773 112.993 135.348 111.283 133.156 109.738C133.026 109.647 132.898 109.556 132.77 109.466C130.474 107.847 128.462 106.412 126.96 105.064C122.617 101.195 119.893 95.5781 119.893 89.3232C119.893 77.6653 129.374 68.2065 141.067 68.2065C150.619 68.2065 158.695 74.515 161.33 83.1834L161.334 83.1942C161.71 84.255 161.957 85.5444 162.117 87.0337L162.118 87.0345L162.131 87.1557L162.144 87.2746C162.144 87.275 162.144 87.2754 162.144 87.2758C162.548 91.2643 162.343 97.4426 162.128 103.871C162.085 105.164 162.042 106.468 162.003 107.765C161.887 111.633 161.812 115.445 161.91 118.773C162.008 122.096 162.277 124.957 162.86 126.912C163.958 130.579 166.21 133.576 168.786 135.272C173.308 138.373 177.842 138.645 181.639 137.58C185.427 136.517 188.484 134.125 190.079 131.888C190.904 130.732 192.006 129.078 192.75 126.002C195.173 115.961 196.032 96.6599 196.032 89.3232C196.032 77.6653 205.513 68.2065 217.206 68.2065C228.899 68.2065 238.38 77.6653 238.38 89.3232C238.38 91.2315 238.222 93.3559 238.05 95.6619C237.441 103.848 236.661 114.321 242.183 125.533C245.633 132.546 250.936 137.749 256.121 141.874C258.569 143.822 260.995 145.532 263.187 147.078C263.317 147.169 263.445 147.259 263.572 147.349Z" fill="url(#paint0_linear_62_709)" stroke="#00C08D" stroke-width="0.5"/>
<path d="M124.199 167.491C124.199 179.158 114.718 188.608 103.025 188.608C91.3314 188.608 81.8506 179.158 81.8506 167.491C81.8506 155.825 91.3314 146.375 103.025 146.375C114.718 146.375 124.199 155.825 124.199 167.491Z" fill="url(#paint1_linear_62_709)" stroke="#00C08D" stroke-width="0.5"/>
</g>
<path fill-rule="evenodd" clip-rule="evenodd" d="M52.4195 231.867H42.6413C42.0719 231.867 41.6104 232.33 41.6104 232.901V290.524C41.6104 291.095 42.0719 291.558 42.6413 291.558H52.4195C52.9889 291.558 53.4504 291.095 53.4504 290.524V250.479L67.533 266.393C67.5752 266.454 67.6235 266.508 67.6777 266.557L67.7018 266.587L72.8321 272.381L72.8623 272.411L74.068 273.772C74.496 274.153 75.147 274.11 75.5208 273.687L96.0539 250.481V290.524C96.0539 291.095 96.5155 291.558 97.0848 291.558H106.863C107.432 291.558 107.894 291.095 107.894 290.524V232.901C107.894 232.33 107.432 231.867 106.863 231.867H97.0848C96.7432 231.867 96.4405 232.034 96.2529 232.29L75.7559 255.653C75.3038 256.167 74.5141 256.167 74.0559 255.659L53.3878 232.477C53.3683 232.455 53.3493 232.435 53.3307 232.417C53.1576 232.09 52.8145 231.867 52.4195 231.867Z" fill="#5B5B5B"/>
<path d="M141.262 242.765C127.83 242.765 116.943 253.687 116.943 267.161C116.943 280.636 127.83 291.558 141.262 291.558C154.693 291.558 165.581 280.636 165.581 267.161C165.581 253.687 154.693 242.765 141.262 242.765ZM141.262 280.394C133.979 280.394 128.071 274.467 128.071 267.161C128.071 259.856 133.979 253.929 141.262 253.929C148.544 253.929 154.452 259.856 154.452 267.161C154.452 274.467 148.544 280.394 141.262 280.394Z" fill="#5B5B5B"/>
<path d="M238.369 242.765C233.504 242.765 228.977 244.204 225.179 246.672V243.817C225.179 243.249 224.714 242.783 224.148 242.783H214.369C213.803 242.783 213.339 243.249 213.339 243.817V301.44C213.339 302.008 213.803 302.474 214.369 302.474H224.148C224.714 302.474 225.179 302.008 225.179 301.44V287.657C228.977 290.125 233.504 291.564 238.369 291.564C251.8 291.564 262.688 280.642 262.688 267.168C262.688 253.693 251.8 242.771 238.369 242.771V242.765ZM238.369 280.394C231.093 280.394 225.191 274.485 225.179 267.186V267.131C225.191 259.838 231.093 253.923 238.369 253.923C245.645 253.923 251.559 259.85 251.559 267.155C251.559 274.461 245.651 280.388 238.369 280.388V280.394Z" fill="#5B5B5B"/>
<path d="M202.987 242.777H196.603C184.468 242.777 174.635 252.647 174.635 264.815V284.621C174.635 284.621 174.635 284.652 174.635 284.664V290.524C174.635 291.092 175.1 291.558 175.666 291.558H185.444C186.011 291.558 186.475 291.092 186.475 290.524V263.938C186.475 257.528 191.654 252.327 198.05 252.327H203.355C203.91 252.327 204.296 251.879 204.296 251.389V244.083C204.296 243.358 203.711 242.771 202.987 242.771V242.777Z" fill="#5B5B5B"/>
<path d="M294.091 242.946C290.256 242.946 286.645 243.914 283.492 245.614V232.901C283.492 232.333 283.028 231.867 282.462 231.867H272.683C272.117 231.867 271.652 232.333 271.652 232.901V265.129C271.652 265.244 271.646 265.359 271.646 265.468V283.369H271.652V290.518C271.652 291.086 272.117 291.552 272.683 291.552H282.462C283.028 291.552 283.492 291.086 283.492 290.518V265.027C283.492 259.668 287.821 254.655 293.138 254.183C299.42 253.633 304.695 258.586 304.695 264.779V290.542C304.695 291.098 305.141 291.546 305.695 291.546H315.54C316.095 291.546 316.547 291.092 316.547 290.536V265.462C316.547 253.022 306.497 242.94 294.097 242.94L294.091 242.946Z" fill="#5B5B5B"/>
<defs>
<linearGradient id="paint0_linear_62_709" x1="95.4179" y1="262.582" x2="251.827" y2="59.6659" gradientUnits="userSpaceOnUse">
<stop offset="0.26" stop-color="#40F0C1"/>
<stop offset="1" stop-color="#BFFD3E"/>
</linearGradient>
<linearGradient id="paint1_linear_62_709" x1="57.0442" y1="239.043" x2="185.367" y2="40.632" gradientUnits="userSpaceOnUse">
<stop stop-color="#40F0C1"/>
<stop offset="1" stop-color="#BFFD3E"/>
</linearGradient>
</defs>
</svg>
